<svg width="686" height="298" viewBox="0 0 686 298" fill="none" xmlns="http://www.w3.org/2000/svg">
<rect x="3.5" y="3.5" width="679" height="291" rx="11.5" stroke="#949494" stroke-width="7"/>
<path d="M142.44 134.5H122.531C122.167 131.924 121.425 129.636 120.303 127.636C119.182 125.606 117.743 123.879 115.985 122.455C114.228 121.03 112.197 119.939 109.894 119.182C107.622 118.424 105.152 118.045 102.485 118.045C97.667 118.045 93.4701 119.242 89.8943 121.636C86.3186 124 83.5458 127.455 81.5761 132C79.6064 136.515 78.6216 142 78.6216 148.455C78.6216 155.091 79.6064 160.667 81.5761 165.182C83.5761 169.697 86.364 173.106 89.9398 175.409C93.5155 177.712 97.6519 178.864 102.349 178.864C104.985 178.864 107.425 178.515 109.667 177.818C111.94 177.121 113.955 176.106 115.712 174.773C117.47 173.409 118.925 171.758 120.076 169.818C121.258 167.879 122.076 165.667 122.531 163.182L142.44 163.273C141.925 167.545 140.637 171.667 138.576 175.636C136.546 179.576 133.803 183.106 130.349 186.227C126.925 189.318 122.834 191.773 118.076 193.591C113.349 195.379 108 196.273 102.031 196.273C93.7276 196.273 86.3034 194.394 79.7579 190.636C73.2428 186.879 68.0913 181.439 64.3034 174.318C60.5458 167.197 58.667 158.576 58.667 148.455C58.667 138.303 60.5761 129.667 64.3943 122.545C68.2125 115.424 73.3943 110 79.9398 106.273C86.4852 102.515 93.8489 100.636 102.031 100.636C107.425 100.636 112.425 101.394 117.031 102.909C121.667 104.424 125.773 106.636 129.349 109.545C132.925 112.424 135.834 115.955 138.076 120.136C140.349 124.318 141.803 129.106 142.44 134.5ZM169.153 154.636V195H149.79V101.909H168.608V137.5H169.426C171.002 133.379 173.547 130.152 177.062 127.818C180.578 125.455 184.987 124.273 190.29 124.273C195.138 124.273 199.366 125.333 202.972 127.455C206.608 129.545 209.426 132.561 211.426 136.5C213.456 140.409 214.456 145.091 214.426 150.545V195H195.062V154C195.093 149.697 194.002 146.348 191.79 143.955C189.608 141.561 186.547 140.364 182.608 140.364C179.972 140.364 177.638 140.924 175.608 142.045C173.608 143.167 172.032 144.803 170.881 146.955C169.759 149.076 169.184 151.636 169.153 154.636ZM223.265 195V125.182H242.037V137.364H242.765C244.037 133.03 246.174 129.758 249.174 127.545C252.174 125.303 255.628 124.182 259.537 124.182C260.507 124.182 261.553 124.242 262.674 124.364C263.795 124.485 264.78 124.652 265.628 124.864V142.045C264.719 141.773 263.462 141.53 261.856 141.318C260.25 141.106 258.78 141 257.447 141C254.598 141 252.053 141.621 249.81 142.864C247.598 144.076 245.841 145.773 244.537 147.955C243.265 150.136 242.628 152.652 242.628 155.5V195H223.265ZM297.535 196.364C290.475 196.364 284.369 194.864 279.217 191.864C274.096 188.833 270.141 184.621 267.353 179.227C264.566 173.803 263.172 167.515 263.172 160.364C263.172 153.152 264.566 146.848 267.353 141.455C270.141 136.03 274.096 131.818 279.217 128.818C284.369 125.788 290.475 124.273 297.535 124.273C304.596 124.273 310.687 125.788 315.808 128.818C320.959 131.818 324.929 136.03 327.717 141.455C330.505 146.848 331.899 153.152 331.899 160.364C331.899 167.515 330.505 173.803 327.717 179.227C324.929 184.621 320.959 188.833 315.808 191.864C310.687 194.864 304.596 196.364 297.535 196.364ZM297.626 181.364C300.838 181.364 303.52 180.455 305.672 178.636C307.823 176.788 309.444 174.273 310.535 171.091C311.656 167.909 312.217 164.288 312.217 160.227C312.217 156.167 311.656 152.545 310.535 149.364C309.444 146.182 307.823 143.667 305.672 141.818C303.52 139.97 300.838 139.045 297.626 139.045C294.384 139.045 291.656 139.97 289.444 141.818C287.262 143.667 285.611 146.182 284.49 149.364C283.399 152.545 282.853 156.167 282.853 160.227C282.853 164.288 283.399 167.909 284.49 171.091C285.611 174.273 287.262 176.788 289.444 178.636C291.656 180.455 294.384 181.364 297.626 181.364ZM357.453 154.636V195H338.09V125.182H356.544V137.5H357.362C358.908 133.439 361.499 130.227 365.135 127.864C368.772 125.47 373.181 124.273 378.362 124.273C383.211 124.273 387.438 125.333 391.044 127.455C394.65 129.576 397.453 132.606 399.453 136.545C401.453 140.455 402.453 145.121 402.453 150.545V195H383.09V154C383.12 149.727 382.029 146.394 379.817 144C377.605 141.576 374.559 140.364 370.681 140.364C368.075 140.364 365.772 140.924 363.772 142.045C361.802 143.167 360.256 144.803 359.135 146.955C358.044 149.076 357.484 151.636 357.453 154.636ZM442.86 196.364C435.8 196.364 429.694 194.864 424.542 191.864C419.421 188.833 415.466 184.621 412.678 179.227C409.891 173.803 408.497 167.515 408.497 160.364C408.497 153.152 409.891 146.848 412.678 141.455C415.466 136.03 419.421 131.818 424.542 128.818C429.694 125.788 435.8 124.273 442.86 124.273C449.921 124.273 456.012 125.788 461.133 128.818C466.284 131.818 470.254 136.03 473.042 141.455C475.83 146.848 477.224 153.152 477.224 160.364C477.224 167.515 475.83 173.803 473.042 179.227C470.254 184.621 466.284 188.833 461.133 191.864C456.012 194.864 449.921 196.364 442.86 196.364ZM442.951 181.364C446.163 181.364 448.845 180.455 450.997 178.636C453.148 176.788 454.769 174.273 455.86 171.091C456.981 167.909 457.542 164.288 457.542 160.227C457.542 156.167 456.981 152.545 455.86 149.364C454.769 146.182 453.148 143.667 450.997 141.818C448.845 139.97 446.163 139.045 442.951 139.045C439.709 139.045 436.981 139.97 434.769 141.818C432.587 143.667 430.936 146.182 429.815 149.364C428.724 152.545 428.178 156.167 428.178 160.227C428.178 164.288 428.724 167.909 429.815 171.091C430.936 174.273 432.587 176.788 434.769 178.636C436.981 180.455 439.709 181.364 442.951 181.364ZM483.778 195V101.909H545.415V118.136H503.46V140.318H541.324V156.545H503.46V195H483.778ZM592.208 101.909V195H572.526V120.591H571.981L550.663 133.955V116.5L573.708 101.909H592.208Z" fill="white"/>
</svg>
